<svg width="152" height="75" viewBox="0 0 152 75" fill="none" xmlns="http://www.w3.org/2000/svg">
<g clip-path="url(#clip0_72_132)">
<path d="M127 0.145996C114.122 8.8285 112.752 15.1298 111.636 17.0574C110.568 19.0337 109.772 26.8253 107.923 30.5996C106.058 34.4225 99.2847 37.4354 97.3881 38.6989C95.5234 39.9624 92.8778 44.8706 90.7103 49.0985C73.4819 48.3857 64.0309 55.3836 49.4003 64.2605C54.0859 62.6892 56.3012 61.5553 56.3012 61.5553C71.3144 55.7237 78.5022 50.4916 101.102 53.5855C101.277 53.5855 101.404 53.6827 101.548 53.7151C102.169 54.0715 102.392 54.8328 102.042 55.4646L93.4516 70.9829C93.0531 71.7443 92.2084 72.1492 91.3637 71.971C71.155 68.1158 55.2016 74.7734 40.5391 74.984C28.8409 75.1622 25 69.5574 25 69.2983C25 69.1201 25.0956 69.0229 25.2709 69.0229C25.2709 69.0229 31.375 69.0229 41.7025 66.5445C53.4325 43.8177 63.8875 35.8641 75.2669 35.8641C75.2669 35.8641 86.6941 35.8641 89.7062 45.8911C93.34 39.4602 94.2166 37.9214 94.2166 37.9214C95.0612 36.3987 99.7947 25.416 107.987 15.0164C116.194 4.64923 122.394 2.07364 127 0.145996Z" fill="white"/>
</g>
<defs>
<clipPath id="clip0_72_132">
<rect width="102" height="75" fill="white" transform="translate(25)"/>
</clipPath>
</defs>
</svg>
