<svg width="146" height="59" viewBox="0 0 146 59" fill="none" xmlns="http://www.w3.org/2000/svg">
<g clip-path="url(#clip0_72_129)">
<path d="M31.5 0.995479H44.1121V35.0101C44.1121 40.4049 46.5437 43.6156 48.5215 44.9521C46.4627 46.7612 40.2215 48.3585 35.5203 44.4958C32.7645 42.214 31.5 38.4165 31.5 34.8797V0.995479ZM110.269 29.2731V25.6875H114.127V13.1703H109.896C108.259 5.62421 101.596 0.0175781 93.6365 0.0175781C84.4611 0.0175781 76.9879 7.51482 76.9879 16.756V45.9626C79.5816 46.3375 82.7266 45.9137 85.3689 43.6808C88.141 41.3991 89.3893 37.6179 89.3893 34.0648V32.9728H95.6791V20.4557H89.3893V16.6582C89.3893 11.019 97.8514 11.019 97.8514 16.6582V29.2242C97.8514 38.4491 105.308 45.9626 114.5 45.9626V33.4944C112.149 33.4944 110.269 31.5875 110.269 29.2731ZM62.5602 13.1377V31.5549C62.5602 34.0648 58.702 34.0648 58.702 31.5549V13.1377H46.252V34.7656C46.252 38.6446 47.5488 43.5667 53.5469 45.1803C59.5449 46.7775 62.9816 43.4527 62.9816 43.4527C62.6412 45.6366 60.6311 47.2502 57.324 47.5761C54.8113 47.8369 51.6178 46.9894 50.0291 46.3049V57.7626C54.098 58.985 58.3777 59.3598 62.6088 58.5286C70.2441 57.0455 75.0588 50.6402 75.0588 42.0999V13.0563H62.5602V13.1377Z" fill="white"/>
</g>
<defs>
<clipPath id="clip0_72_129">
<rect width="83" height="59" fill="white" transform="translate(31.5)"/>
</clipPath>
</defs>
</svg>
